<svg width="1622" height="1044" viewBox="0 0 1622 1044" fill="none" xmlns="http://www.w3.org/2000/svg">
<rect width="1622" height="1044" fill="#3C59C1"/>
<rect x="245.586" y="142" width="162.069" height="102.591" rx="50" fill="#33406E"/>
<rect x="184" y="197.455" width="282" height="99.8186" rx="49.9093" fill="#33406E"/>
<rect x="225.586" y="125" width="162.069" height="102.591" rx="50" fill="#E8E8E8"/>
<rect x="164" y="180.455" width="282" height="99.8186" rx="49.9093" fill="#E8E8E8"/>
<rect x="668.586" y="488" width="162.069" height="102.591" rx="50" fill="#33406E"/>
<rect x="607" y="543.455" width="282" height="99.8186" rx="49.9093" fill="#33406E"/>
<rect x="648.586" y="471" width="162.069" height="102.591" rx="50" fill="#E8E8E8"/>
<rect x="587" y="526.455" width="282" height="99.8186" rx="49.9093" fill="#E8E8E8"/>
<rect x="1085.59" y="247" width="162.069" height="102.591" rx="50" fill="#33406E"/>
<rect x="1024" y="302.455" width="282" height="99.8186" rx="49.9093" fill="#33406E"/>
<rect x="1065.59" y="230" width="162.069" height="102.591" rx="50" fill="#E8E8E8"/>
<rect x="1004" y="285.455" width="282" height="99.8186" rx="49.9093" fill="#E8E8E8"/>
<rect x="1216.59" y="717" width="162.069" height="102.591" rx="50" fill="#33406E"/>
<rect x="1155" y="772.455" width="282" height="99.8186" rx="49.9093" fill="#33406E"/>
<rect x="1196.59" y="700" width="162.069" height="102.591" rx="50" fill="#E8E8E8"/>
<rect x="1135" y="755.455" width="282" height="99.8186" rx="49.9093" fill="#E8E8E8"/>
<rect x="265.586" y="699" width="162.069" height="102.591" rx="50" fill="#33406E"/>
<rect x="204" y="754.455" width="282" height="99.8186" rx="49.9093" fill="#33406E"/>
<rect x="245.586" y="682" width="162.069" height="102.591" rx="50" fill="#E8E8E8"/>
<rect x="184" y="737.455" width="282" height="99.8186" rx="49.9093" fill="#E8E8E8"/>
</svg>
