<svg width="80" height="80" viewBox="0 0 80 80" fill="none" xmlns="http://www.w3.org/2000/svg">
<rect width="80" height="80" rx="20" fill="url(#paint0_linear_18_37)"/>
<path d="M36.5994 64V29.0909H43.3949V64H36.5994ZM40.0312 23.7045C38.8494 23.7045 37.8343 23.3106 36.9858 22.5227C36.1525 21.7197 35.7358 20.7651 35.7358 19.6591C35.7358 18.5379 36.1525 17.5833 36.9858 16.7955C37.8343 15.9924 38.8494 15.5909 40.0312 15.5909C41.2131 15.5909 42.2206 15.9924 43.054 16.7955C43.9025 17.5833 44.3267 18.5379 44.3267 19.6591C44.3267 20.7651 43.9025 21.7197 43.054 22.5227C42.2206 23.3106 41.2131 23.7045 40.0312 23.7045Z" fill="#969696"/>
<defs>
<linearGradient id="paint0_linear_18_37" x1="23.5" y1="-10" x2="72.5" y2="85.5" gradientUnits="userSpaceOnUse">
<stop stop-color="#F8F8F8"/>
<stop offset="1" stop-color="#E2E2E2"/>
</linearGradient>
</defs>
</svg>
