<svg width="80" height="82" viewBox="0 0 80 82" fill="none" xmlns="http://www.w3.org/2000/svg">
<rect width="80" height="80" rx="20" fill="#FAFAFA"/>
<g filter="url(#filter0_d_31_156)">
<circle cx="40" cy="40" r="28" fill="url(#paint0_linear_31_156)"/>
</g>
<path d="M29.1357 30.1291L33.3846 29.3566C33.8426 29.2733 34.2825 29.1108 34.6846 28.8762L39.7799 25.904C40.2496 25.63 40.5384 25.1271 40.5384 24.5834C40.5384 23.477 39.3996 22.7369 38.3886 23.1862L36.2796 24.1235C35.8923 24.2957 35.4733 24.3846 35.0495 24.3846H34.3171C32.9949 24.3846 31.923 23.3127 31.923 21.9905C31.923 21.139 32.3753 20.3515 33.1108 19.9225L37.0732 17.6111C37.9181 17.1183 38.9141 16.952 39.8732 17.1439L41.499 17.469C42.9033 17.7499 44.3506 17.2585 45.2937 16.1807L45.6729 15.7474C46.7906 14.47 48.5928 14.0371 50.1687 14.6675L52.5363 15.6145C52.7934 15.7174 53.0392 15.8466 53.2696 16.0002L57.2654 18.6641C57.5993 18.8867 57.8979 19.1584 58.151 19.4699L64.3856 27.1433C64.6399 27.4562 64.8453 27.8058 64.9951 28.1801L67.4244 34.2533C67.7947 35.1791 67.8059 36.2098 67.4558 37.1434L66.5579 39.5378C66.4452 39.8383 66.2372 40.0982 65.9701 40.2763C65.3024 40.7214 64.3924 40.5746 63.9109 39.9326C63.4725 39.348 62.6787 39.1606 62.0251 39.4874L61.8306 39.5846C61.3104 39.8448 60.9509 40.3436 60.8686 40.9194L60.7317 41.8774C60.3602 44.4783 57.3814 45.7789 55.2213 44.2834C53.8743 43.3509 52.063 43.4663 50.8453 44.5622L50.1094 45.2245C48.6331 46.5532 48.3554 48.7639 49.4571 50.4165L51.2994 53.18C51.6585 53.7186 51.8815 54.3363 51.9493 54.98L52.5925 61.0908C52.7863 62.9319 51.6915 64.6654 49.9458 65.2815L44.816 67.092C44.157 67.3246 43.427 67.2334 42.8455 66.8457C42.3995 66.5484 42.0761 66.0997 41.9351 65.5826L41.3423 63.409C40.8677 61.6688 39.287 60.4615 37.4832 60.4615H34.0056C32.7004 60.4615 31.4772 59.8247 30.7287 58.7554L29.0602 56.3717C28.4778 55.5398 28.2337 54.5175 28.3773 53.5122L29.0702 48.6618C29.1752 47.9274 29.4822 47.2366 29.9571 46.6667L30.7236 45.7469C31.4836 44.835 32.6094 44.3077 33.7965 44.3077H36.6818C38.3418 44.3077 39.8156 43.2454 40.3405 41.6706L40.3613 41.6081C40.4786 41.2563 40.6518 40.9256 40.8743 40.629C41.6585 39.5835 41.7846 38.1847 41.2001 37.0158L40.8554 36.3263C40.6524 35.9203 40.2965 35.6116 39.8659 35.4681L39.3404 35.293C38.0462 34.8615 36.9049 36.2596 37.5674 37.4522C37.9992 38.2294 37.6542 39.2152 36.8286 39.5454C36.1696 39.809 35.4162 39.5662 35.0352 38.9674L33.7483 36.9453C32.6959 35.2914 30.5999 34.644 28.798 35.4162L28.1538 35.6923L27.1929 36.1727C26.4256 36.5564 25.5424 36.6385 24.7175 36.4028L24.5702 36.3607C23.1854 35.9651 22.2307 34.6994 22.2307 33.2592C22.2307 32.4037 22.5706 31.5832 23.1755 30.9783L23.3111 30.8427C24.299 29.8548 25.7603 29.5098 27.0857 29.9516L27.207 29.9921C27.8282 30.1991 28.4915 30.2463 29.1357 30.1291Z" fill="#3F7336" stroke="white" stroke-width="2"/>
<path d="M46.8571 45.3807L41.8803 43.0387C40.7522 42.5078 39.4123 42.7417 38.5307 43.6233C38.086 44.068 37.5111 44.3593 36.8895 44.4549L33.5494 44.9688C31.9196 45.2195 30.6106 46.4448 30.2529 48.0545L29.1361 53.0804C28.8574 54.3342 29.1979 55.6456 30.0512 56.6056L32.1527 58.9698C32.7039 59.5899 33.4344 60.0233 34.2429 60.2099L38.344 61.1563C39.4023 61.4005 40.3157 62.0646 40.8745 62.9959L41.4208 63.9063C42.4558 65.6314 44.611 66.3193 46.454 65.513L49.4495 64.2024C50.9055 63.5655 51.8462 62.127 51.8462 60.5378V55.6857C51.8462 54.936 51.6356 54.2014 51.2382 53.5657L49.7619 51.2036C49.3646 50.5679 49.1539 49.8333 49.1539 49.0836V49C49.1539 47.4505 48.2591 46.0405 46.8571 45.3807Z" fill="#C2CC4A" stroke="white" stroke-width="2"/>
<defs>
<filter id="filter0_d_31_156" x="2" y="6" width="76" height="76" filterUnits="userSpaceOnUse" color-interpolation-filters="sRGB">
<feFlood flood-opacity="0" result="BackgroundImageFix"/>
<feColorMatrix in="SourceAlpha" type="matrix" values="0 0 0 0 0 0 0 0 0 0 0 0 0 0 0 0 0 0 127 0" result="hardAlpha"/>
<feOffset dy="4"/>
<feGaussianBlur stdDeviation="5"/>
<feComposite in2="hardAlpha" operator="out"/>
<feColorMatrix type="matrix" values="0 0 0 0 0 0 0 0 0 0 0 0 0 0 0 0 0 0 0.1 0"/>
<feBlend mode="normal" in2="BackgroundImageFix" result="effect1_dropShadow_31_156"/>
<feBlend mode="normal" in="SourceGraphic" in2="effect1_dropShadow_31_156" result="shape"/>
</filter>
<linearGradient id="paint0_linear_31_156" x1="20.0769" y1="13.6154" x2="55.6154" y2="70.1538" gradientUnits="userSpaceOnUse">
<stop stop-color="#7277FF"/>
<stop offset="1" stop-color="#00DEEC"/>
</linearGradient>
</defs>
</svg>
