<svg width="80" height="80" viewBox="0 0 80 80" fill="none" xmlns="http://www.w3.org/2000/svg">
<rect width="80" height="80" rx="20" fill="url(#paint0_linear_16_18)"/>
<path d="M63.6077 17.4055L33.2379 38.3361C33.0825 38.4432 32.9605 38.5921 32.8862 38.7655L30.3438 44.6977C30.1469 45.1573 30.3197 45.6918 30.7485 45.9491L34.5616 48.2369C34.8369 48.4021 35.1748 48.4251 35.47 48.2986L41.7873 45.5911C41.9273 45.5312 42.0517 45.44 42.151 45.3247L64.9328 18.8816C65.6981 17.9932 64.5732 16.7401 63.6077 17.4055Z" fill="#EFEFEF"/>
<path d="M16.4868 57.5569C14.9727 58.9964 18.2731 59.6184 21.9749 59.798C27.0712 60.0453 30.5584 56.7354 31.8855 51.8087C32.4246 49.5461 31.2428 47.4147 28.922 47.2608C27.5621 47.1706 26.0818 47.1785 24.841 47.3498C23.1758 47.5797 22.2083 49.0526 21.8069 50.685C21.2605 52.9071 19.9743 54.8772 18.1598 56.2714L16.4868 57.5569Z" fill="#EFEFEF"/>
<defs>
<linearGradient id="paint0_linear_16_18" x1="23.5" y1="-10" x2="72.5" y2="85.5" gradientUnits="userSpaceOnUse">
<stop stop-color="#FF007A"/>
<stop offset="1" stop-color="#C80060"/>
</linearGradient>
</defs>
</svg>
